<svg width="19" height="18" viewBox="0 0 19 18" fill="none" xmlns="http://www.w3.org/2000/svg">
<path fill-rule="evenodd" clip-rule="evenodd" d="M0.5 3C0.5 1.34315 1.84315 0 3.5 0H4.5C5.05228 0 5.5 0.447715 5.5 1C5.5 1.55228 5.05228 2 4.5 2H3.5C2.94772 2 2.5 2.44772 2.5 3V15C2.5 15.5523 2.94772 16 3.5 16H15.5C16.0523 16 16.5 15.5523 16.5 15V14C16.5 13.4477 16.9477 13 17.5 13C18.0523 13 18.5 13.4477 18.5 14V15C18.5 16.6569 17.1569 18 15.5 18H3.5C1.84315 18 0.5 16.6569 0.5 15V3Z" fill="#2AA893"/>
<path fill-rule="evenodd" clip-rule="evenodd" d="M10.5002 2C9.94787 2 9.50015 1.55228 9.50015 1C9.50015 0.447715 9.94787 0 10.5002 0H17.5712C18.1235 0 18.5712 0.447716 18.5712 1L18.5712 8.07107C18.5712 8.62335 18.1235 9.07107 17.5712 9.07107C17.0189 9.07107 16.5712 8.62335 16.5712 8.07107L16.5712 3.34315L9.20711 10.7073C8.81658 11.0978 8.18342 11.0978 7.79289 10.7073C7.40237 10.3167 7.40237 9.68357 7.79289 9.29304L15.0859 2H10.5002Z" fill="#2AA893"/>
</svg>
