<svg width="14" height="14" viewBox="0 0 14 14" fill="none" xmlns="http://www.w3.org/2000/svg">
<path fill-rule="evenodd" clip-rule="evenodd" d="M0.25 2.5C0.25 1.25736 1.25736 0.25 2.5 0.25H3.25C3.66421 0.25 4 0.585786 4 1C4 1.41421 3.66421 1.75 3.25 1.75H2.5C2.08579 1.75 1.75 2.08579 1.75 2.5V11.5C1.75 11.9142 2.08579 12.25 2.5 12.25H11.5C11.9142 12.25 12.25 11.9142 12.25 11.5V10.75C12.25 10.3358 12.5858 10 13 10C13.4142 10 13.75 10.3358 13.75 10.75V11.5C13.75 12.7426 12.7426 13.75 11.5 13.75H2.5C1.25736 13.75 0.25 12.7426 0.25 11.5V2.5Z" fill="#FAFAFA"/>
<path fill-rule="evenodd" clip-rule="evenodd" d="M7.75011 1.75C7.3359 1.75 7.00011 1.41421 7.00011 1C7.00011 0.585786 7.3359 0.25 7.75011 0.25H13.0534C13.4676 0.25 13.8034 0.585787 13.8034 1L13.8034 6.3033C13.8034 6.71751 13.4676 7.0533 13.0534 7.0533C12.6392 7.0533 12.3034 6.71751 12.3034 6.3033L12.3034 2.75736L6.78033 8.28044C6.48744 8.57334 6.01256 8.57334 5.71967 8.28044C5.42678 7.98755 5.42678 7.51268 5.71967 7.21978L11.1895 1.75H7.75011Z" fill="#FAFAFA"/>
</svg>
