<svg width="21" height="18" viewBox="0 0 21 18" fill="none" xmlns="http://www.w3.org/2000/svg">
<path fill-rule="evenodd" clip-rule="evenodd" d="M7.82324 1.36754C8.09546 0.55086 8.85974 0 9.7206 0H10.9998C12.1044 0 12.9998 0.895431 12.9998 2V6H18.3818C19.8686 6 20.8356 7.56463 20.1707 8.89443L16.1707 16.8944C15.8319 17.572 15.1394 18 14.3818 18H7.61788C6.86033 18 6.16781 17.572 5.82902 16.8944L4.29066 13.8177C4.05344 13.3433 4.01441 12.794 4.18215 12.2908L7.82324 1.36754Z" fill="white"/>
<path fill-rule="evenodd" clip-rule="evenodd" d="M3.31607 6.05132C3.84002 6.22596 4.12318 6.79228 3.94853 7.31623L2.2105 12.5303C2.12663 12.7819 2.14615 13.0565 2.26476 13.2938L3.89427 16.5528C4.14126 17.0468 3.94104 17.6474 3.44706 17.8944C2.95308 18.1414 2.35241 17.9412 2.10542 17.4472L0.475901 14.1882C0.120075 13.4765 0.0615261 12.6527 0.313133 11.8979L2.05116 6.68377C2.22581 6.15983 2.79213 5.87667 3.31607 6.05132Z" fill="white"/>
</svg>
